<svg width="289" height="253" viewBox="0 0 289 253" fill="none" xmlns="http://www.w3.org/2000/svg">
<g style="mix-blend-mode:multiply">
<path d="M79.6719 184.047L70.8125 199.469L81.3125 205.047L91.1562 209.641L99.0312 214.891L107.234 219.812L120.031 224.078L127.25 213.25L133.812 195.531L130.859 186.672L108.547 177.812L100.672 171.578L98.0469 165.016L79.6719 184.047Z" fill="#FFE145"/>
<path d="M50.1406 205.375C52.3512 207.708 57.6875 208.656 57.6875 208.656L64.5781 198.812L53.0938 190.609C53.0938 190.609 51.4126 187.179 51.4531 185.031C51.4914 183.006 52.4375 180.438 52.4375 180.438L47.1875 180.766L48.1719 184.375L47.1875 193.891C47.1875 193.891 46.7862 197.993 47.5156 200.453C48.1349 202.542 48.6423 203.794 50.1406 205.375Z" fill="#FFE145"/>
<path d="M44.2344 180.438L5.1875 179.781L0.59375 195.859L0.265625 206.031L4.85938 213.578C4.85938 213.578 5.00224 219.137 6.5 222.438C7.78188 225.262 8.88868 226.818 11.0938 229C14.7826 232.65 17.4462 234.921 22.25 236.219C24.3675 236.791 25.9704 236.401 28.1562 236.219C32.4979 235.856 37.0156 231.625 37.0156 231.625L50.4688 218.828L56.0469 210.953C56.0469 210.953 50.3114 209.323 47.8438 206.688C46.0405 204.761 44.5625 200.781 44.5625 200.781L45.2188 192.25L45.875 184.375L44.2344 180.438Z" fill="#FFE145"/>
<path d="M83.6094 109.891L47.8438 92.8281L34.3906 115.141L29.1406 121.375L24.875 125.641L17 128.922L11.75 133.516L7.8125 141.719L2.38206 161.932C2.06891 163.098 2.02356 164.319 2.24939 165.505L4.53125 177.484L32.4219 177.156L33.0281 177.25C37.4021 177.922 41.4914 174.916 42.1543 170.541L42.5938 167.641L47.1875 161.406L58.0156 152.875L60.3125 146.312L65.5625 138.766L75.4062 123.344L83.6094 109.891Z" fill="#FFE145"/>
<path d="M47.8438 90.8594L84.2656 108.25L88.8594 98.4062L101.984 86.5938L110.188 83.3125L123.969 70.5156L134.141 64.2812L147.216 58.6352C148.116 58.2463 149.081 58.0264 150.061 57.9864L164.656 57.3906L202.391 56.7344L200.422 9.8125L186.641 9.15625L186.371 13.3277C186.158 16.6396 183.296 19.1489 179.985 18.9282L176.141 18.6719L181.062 13.0938L180.08 10.0066C179.231 7.33667 177.474 5.04816 175.114 3.53781L170.562 0.625L159.406 17.6875L149.562 23.9219L124.625 34.75L117.078 38.3594L101 52.1406L83.2812 61.6562L75.0781 67.2344L70.1562 72.1562L59.6562 80.0312L47.8438 90.8594Z" fill="#FFE145"/>
<path d="M55.7187 189.953L66.875 197.5L79.0156 179.125L102.969 150.25L112.484 143.688L143.328 142.047C143.328 142.047 158.917 150.682 168.594 153.531C173.367 154.937 179.094 155.828 179.094 155.828L186.969 159.109L205.335 169.774C206.559 170.484 207.312 171.793 207.312 173.209C207.312 175.12 208.002 176.967 209.253 178.411L215.844 186.016L248 224.078L248.817 224.375C250.103 224.843 251.432 223.797 251.281 222.438L252.266 221.781C252.266 221.781 255.168 224.521 256.531 224.734C259.334 225.173 264.406 222.438 264.406 222.438C264.406 222.438 267.631 221.246 269.656 218.5C270.439 217.438 270.641 215.547 271.297 215.547C271.825 215.547 272.609 215.875 272.609 215.875C272.609 215.875 273.669 214.533 276.219 212.594C279.054 210.437 282.125 209.312 283.437 207.016C285.705 203.048 285.734 193.562 286.719 182.078C286.823 180.867 287.062 179.456 287.339 178.097C288.076 174.486 287.895 170.713 286.443 167.326L285.734 165.672L286.391 154.516L285.078 141.062L284.75 125.312L277.616 110.536C276.296 107.802 273.989 105.669 271.159 104.569L269.656 103.984C269.656 103.984 262.437 97.0938 261.781 94.4688C259.779 86.4588 257.271 74.2772 255.8 66.9348C255.066 63.2713 251.912 60.5864 248.178 60.4659L244.391 60.3438L223.391 60.0156V62.3138C223.391 63.4056 222.515 64.2956 221.423 64.3135L205.148 64.5803C204.144 64.5968 203.294 63.8441 203.189 62.8461C202.924 60.3248 200.759 58.4347 198.225 58.512L148.906 60.0156C148.906 60.0156 133.636 66.5655 125.281 72.8125C119.689 76.9935 118.218 80.6463 112.156 84.625C109.042 86.6689 107.715 85.7405 104.281 88.2344C99.147 91.9628 96.4062 95.125 91.8125 99.7188C89.8925 101.639 88.8594 106.938 88.8594 106.938L86.5625 111.531C86.5625 111.531 89.4562 111.678 89.8437 113.172C90.6229 116.174 85.2004 116.957 82.9531 119.406C80.4589 122.125 78.3594 127.281 78.3594 127.281C78.3594 127.281 73.0156 135.994 70.4844 141.391C63.86 155.514 54.7344 177.484 54.7344 177.484L55.0625 179.781C55.0625 179.781 53.4471 183.357 53.75 186.016C53.9709 187.955 55.7187 189.953 55.7187 189.953Z" fill="#FFE145"/>
<g style="mix-blend-mode:darken">
<path d="M129.219 213.25L122 224.406L182.375 245.406L192.219 241.469H197.469L202.062 244.75L205.016 246.719L206.328 252.953H208.625L214.859 250.328L238.484 236.547L248.656 230.312L242.75 223.75L222.406 198.484L205.344 178.141L196.156 173.547L178.438 163.047L172.859 157.797L163.344 155.5L158.094 151.891L142.344 145H136.109H130.531L118.719 145.328L114.453 146.641L109.203 148.938L101.328 155.5L98.7031 163.047L102.312 170.922L110.516 177.156L132.172 185.031L135.453 195.203L129.219 213.25Z" fill="#FFE145"/>
</g>
<path d="M203.375 10.4688L205.672 55.75L208.297 56.7344L219.453 57.0625L221.75 56.4062L229.625 58.375H243.406L248.984 57.7188L280.484 12.7656L274.906 8.17188L262.109 2.26562L240.125 7.84375L229.625 12.4375L216.172 12.1094L203.375 10.4688Z" fill="#FFE145"/>
</g>
</svg>
