<svg width="193" height="38" viewBox="0 0 193 38" fill="none" xmlns="http://www.w3.org/2000/svg">
<path d="M11.76 37.248C9.488 37.248 7.456 36.784 5.664 35.856C3.904 34.928 2.512 33.488 1.488 31.536C0.496 29.584 0 27.088 0 24.048C0 20.88 0.528 18.304 1.584 16.32C2.64 14.336 4.064 12.88 5.856 11.952C7.68 11.024 9.744 10.56 12.048 10.56C13.36 10.56 14.624 10.704 15.84 10.992C17.056 11.248 18.048 11.568 18.816 11.952L17.52 15.456C16.752 15.168 15.856 14.896 14.832 14.64C13.808 14.384 12.848 14.256 11.952 14.256C6.896 14.256 4.368 17.504 4.368 24C4.368 27.104 4.976 29.488 6.192 31.152C7.44 32.784 9.28 33.6 11.712 33.6C13.12 33.6 14.352 33.456 15.408 33.168C16.496 32.88 17.488 32.528 18.384 32.112V35.856C17.52 36.304 16.56 36.64 15.504 36.864C14.48 37.12 13.232 37.248 11.76 37.248ZM8.784 7.68C8.368 6.944 7.808 6.16 7.104 5.328C6.4 4.464 5.664 3.616 4.896 2.784C4.128 1.952 3.456 1.232 2.88 0.624001V0H5.76C6.592 0.544001 7.456 1.2 8.352 1.968C9.248 2.736 10.096 3.552 10.896 4.416C11.76 3.552 12.64 2.736 13.536 1.968C14.432 1.2 15.296 0.544001 16.128 0H19.104V0.624001C18.496 1.232 17.792 1.952 16.992 2.784C16.224 3.616 15.472 4.464 14.736 5.328C14.032 6.16 13.488 6.944 13.104 7.68H8.784Z" fill="black"/>
<path d="M37.7663 14.1039L38.2584 11.8071H47.4225V13.2368L43.9772 14.6899L35.1881 36.768H32.3522L23.5631 14.5961L20.1178 13.9633L20.5866 11.8071H31.6256V13.2368L28.1803 14.4555L34.6491 30.9555L41.1881 14.5961L37.7663 14.1039Z" fill="black"/>
<path d="M63.5241 36.768V32.8774C63.0397 33.4555 62.4538 34.0024 61.7663 34.518C61.0788 35.0336 60.3522 35.4946 59.5866 35.9008C58.8209 36.2914 58.0475 36.5961 57.2663 36.8149C56.485 37.0336 55.7428 37.143 55.0397 37.143C54.1647 37.143 53.3444 37.0102 52.5788 36.7446C51.8131 36.4789 51.1413 36.0727 50.5631 35.5258C49.985 34.9789 49.5163 34.3227 49.1569 33.5571C48.8131 32.7914 48.6413 31.893 48.6413 30.8618C48.6413 29.268 49.0475 27.9711 49.86 26.9711C50.6881 25.9555 52.1413 25.1743 54.2194 24.6274C55.7819 24.2055 57.2897 23.8618 58.7428 23.5961C60.1959 23.3149 61.7897 23.0805 63.5241 22.893V18.9555C63.5241 18.0649 63.3913 17.3071 63.1256 16.6821C62.8756 16.0571 62.5241 15.5493 62.0709 15.1586C61.6334 14.7524 61.1178 14.4633 60.5241 14.2914C59.9303 14.1039 59.2975 14.0102 58.6256 14.0102C57.8913 14.0102 57.1413 14.0649 56.3756 14.1743C55.61 14.268 54.86 14.4399 54.1256 14.6899L52.7663 20.1508L50.2819 19.7289V13.4946C51.5319 12.9477 52.8678 12.4633 54.2897 12.0414C55.7116 11.6039 57.235 11.3852 58.86 11.3852C60.11 11.3852 61.2819 11.5102 62.3756 11.7602C63.4694 12.0102 64.4225 12.4321 65.235 13.0258C66.0475 13.6196 66.6803 14.4086 67.1334 15.393C67.6022 16.3618 67.8366 17.5649 67.8366 19.0024V33.7446L71.3053 34.5649L70.8131 36.768H63.5241ZM53.4459 30.4868C53.4459 31.2524 53.5397 31.8696 53.7272 32.3383C53.9303 32.7914 54.1959 33.1586 54.5241 33.4399C54.8678 33.7055 55.2506 33.8852 55.6725 33.9789C56.11 34.0727 56.5709 34.1196 57.0553 34.1196C57.6178 34.1196 58.2194 34.0024 58.86 33.768C59.5006 33.5336 60.1178 33.2446 60.7116 32.9008C61.3053 32.5414 61.8522 32.1352 62.3522 31.6821C62.8522 31.2289 63.2428 30.7993 63.5241 30.393V24.9086C62.5084 25.0336 61.485 25.1743 60.4538 25.3305C59.4225 25.4711 58.3991 25.6821 57.3834 25.9633C55.8834 26.3852 54.8522 26.9946 54.2897 27.7914C53.7272 28.5883 53.4459 29.4868 53.4459 30.4868Z" fill="black"/>
<path d="M92.7272 18.5805L90.2194 19.0024L88.9303 15.3696C88.8053 15.3383 88.6413 15.3227 88.4381 15.3227C88.2506 15.3227 88.0944 15.3227 87.9694 15.3227C86.9381 15.3227 85.86 15.5493 84.735 16.0024C83.6256 16.4399 82.7506 17.0258 82.11 17.7602V33.7914L86.5397 34.4711L86.0475 36.768H73.6725V35.3383L77.8444 33.8852V15.5102L73.86 14.7368L73.6256 12.6274L82.11 11.4789V15.4164C83.2038 14.2602 84.3678 13.3149 85.6022 12.5805C86.8366 11.8461 88.1569 11.4789 89.5631 11.4789C90.6413 11.4789 91.6959 11.6977 92.7272 12.1352V18.5805Z" fill="black"/>
<path d="M112.321 14.8305C110.946 14.2836 109.696 14.0102 108.571 14.0102C107.352 14.0102 106.243 14.268 105.243 14.7836C104.258 15.2993 103.415 15.9946 102.712 16.8696C102.008 17.7446 101.454 18.7914 101.048 20.0102C100.657 21.2289 100.462 22.5414 100.462 23.9477C100.462 25.2289 100.618 26.4789 100.93 27.6977C101.258 28.9164 101.758 30.0102 102.43 30.9789C103.102 31.9321 103.946 32.6977 104.962 33.2758C105.993 33.8383 107.212 34.1196 108.618 34.1196C109.712 34.1196 110.899 33.9164 112.18 33.5102C113.477 33.0883 114.626 32.5102 115.626 31.7758L116.68 33.6039C115.399 34.8227 113.985 35.7446 112.438 36.3696C110.907 36.9946 109.329 37.3071 107.704 37.3071C106.079 37.3071 104.532 37.018 103.063 36.4399C101.61 35.8618 100.329 35.018 99.2194 33.9086C98.1256 32.7993 97.2584 31.4399 96.6178 29.8305C95.9772 28.2211 95.6569 26.3774 95.6569 24.2993C95.6569 22.2368 96.0163 20.4086 96.735 18.8149C97.4538 17.2211 98.4069 15.8696 99.5944 14.7602C100.782 13.6508 102.141 12.8149 103.673 12.2524C105.204 11.6743 106.79 11.3852 108.43 11.3852C109.743 11.3852 111.032 11.5727 112.298 11.9477C113.579 12.3071 114.829 12.8696 116.048 13.6352V20.0102L113.657 20.5024L112.321 14.8305Z" fill="black"/>
<path d="M128.423 33.7914L132.032 34.4711L131.54 36.768H119.891V35.3383L124.11 33.8852V15.3227L120.219 14.5961L119.985 12.6274L128.423 11.4789V33.7914ZM122.516 4.47113C123.329 3.06488 124.454 1.9555 125.891 1.143C127.298 1.87738 128.368 2.9555 129.102 4.37738C128.274 5.78363 127.157 6.88519 125.751 7.68206C125.079 7.32269 124.462 6.86956 123.899 6.32269C123.337 5.76019 122.876 5.143 122.516 4.47113Z" fill="black"/>
<path d="M135.102 34.1196C135.946 32.6196 137.133 31.4555 138.665 30.6274C140.133 31.4243 141.266 32.5571 142.063 34.0258C141.204 35.5414 140.024 36.7133 138.524 37.5414C137.024 36.7758 135.883 35.6352 135.102 34.1196Z" fill="black"/>
<path d="M148.614 19.9633L158.434 32.9946V21.4985L156.173 21.0532L156.407 19.9633H162.149V20.8071L159.864 21.4985V36.768H158.434L148.614 23.7133V35.2328L150.887 35.6899L150.653 36.768H144.887V35.9243L147.173 35.2328V21.4985L144.887 21.0532L145.133 19.9633H148.614Z" fill="black"/>
<path d="M175.426 32.6664L176.68 32.9243V36.768H163.673V35.9243L165.946 35.2328V21.4985L163.673 21.0532L163.907 19.9633H176.176V23.9008L174.969 24.1469L174.208 21.2875H168.348V27.3813L172.403 27.2875L173.048 25.6821L173.891 25.9164V30.1703L173.223 30.4047L172.403 28.8227L168.348 28.7055V35.4438H174.665L175.426 32.6664Z" fill="black"/>
<path d="M179.153 24.7446L177.958 24.4985V19.9633H192.044V24.4985L190.848 24.7446L190.051 21.2875H186.243V35.2328L188.516 35.6899L188.282 36.768H181.555V35.9243L183.84 35.2328V21.2875H179.95L179.153 24.7446Z" fill="black"/>
</svg>
